{"title":"The New Daughter-AC3-5,1-DVDRip[Eng]2009 2Lions-Team","uid":5561837,"size":1466299298,"categoryP":"video","categoryS":"movies","magnet":"?xt=urn:btih:afe63b63b2171364b6d832266ad82202f304f728&amp;dn=The+New+Daughter-AC3-5%2C1-DVDRip%5BEng%5D2009+2Lions-Team&amp;tr=udp%3A%2F%2Ftracker.openbittorrent.com%3A80&amp;tr=udp%3A%2F%2Fopen.demonii.com%3A1337&amp;tr=udp%3A%2F%2Ftracker.coppersurfer.tk%3A6969&amp;tr=udp%3A%2F%2Fexodus.desync.com%3A6969","seeders":1,"leechers":1,"uploader":"FatFreddy31","files":-1,"time":1273854607,"description":"A single father moves his two children to rural South Carolina, only to watch his daughter exhibit increasingly strange behavior.\n &lt;a href=&quot;\nhttp://www.imdb.com/title/tt0951335/&quot; rel=&quot;nofollow&quot; target=&quot;_NEW&quot;&gt;\nhttp://www.imdb.com/title/tt0951335/&lt;/a&gt;\n\nSubtitles (srt) : Dutch, English, Hungarian, Portuguese, Servian and Turkish.\n\nCovers included.\n\nJohn James (Kevin Costner) is een alleenstaande vader die na een pijnlijke scheiding met zijn twee kinderen naar een boerderij verhuist. Al snel vertoont \nzijn dochter vreemd gedrag en gaat John de omgeving verkennen op zoek naar eventuele oorzaken.\n &lt;a href=&quot;\nhttp://www.moviemeter.nl/film/50354&quot; rel=&quot;nofollow&quot; target=&quot;_NEW&quot;&gt;\nhttp://www.moviemeter.nl/film/50354&lt;/a&gt;\n\nOndertitels (srt) : Engels, Hongaars, Nederlands, Portugees, Servisch en Turks.\n\nHoesjes bijgesloten.\n\nGeneral\nComplete name                    : The New Daughter-AC3-5,1-DVDRip[Eng]2009.avi\nFormat                           : AVI\nFormat/Info                      : Audio Video Interleave\nFile size                        : 1.36 GiB\nDuration                         : 1h 47mn\nOverall bit rate                 : 1 807 Kbps\nWriting application              : VirtualDubMod 1.5.4.1 (build 2178/release)\nWriting library                  : VirtualDubMod build 2178/release\n\nVideo\nID                               : 0\nFormat                           : MPEG-4 Visual\nFormat profile                   : Simple@L3\nFormat settings, BVOP            : No\nFormat settings, QPel            : No\nFormat settings, GMC             : No warppoints\nFormat settings, Matrix          : Default (H.263)\nCodec ID                         : XVID\nCodec ID/Hint                    : XviD\nDuration                         : 1h 47mn\nBit rate                         : 1 350 Kbps\nWidth                            : 720 pixels\nHeight                           : 304 pixels\nDisplay aspect ratio             : 2.35:1\nFrame rate                       : 23.976 fps\nResolution                       : 24 bits\nColorimetry                      : 4:2:0\nScan type                        : Progressive\nBits/(Pixel*Frame)               : 0.257\nStream size                      : 1.02 GiB (75%)\nWriting library                  : XviD 1.1.2 (UTC 2006-11-01)\n\nAudio\nID                               : 1\nFormat                           : AC-3\nFormat/Info                      : Audio Coding 3\nCodec ID                         : 2000\nDuration                         : 1h 47mn\nBit rate mode                    : Constant\nBit rate                         : 448 Kbps\nChannel(s)                       : 6 channels\nChannel positions                : Front: L C R, Surround: L R, LFE\nSampling rate                    : 48.0 KHz\nStream size                      : 346 MiB (25%)\nAlignment                        : Split accross interleaves\nInterleave, duration             : 42 ms (1.00 video frame)\nInterleave, preload duration     : 500 ms\n\nBrought to you by \n2Lions Team\n\nmeer zien??\nKom dan eens kijken op ons forum \n                    &lt;a href=&quot;\nhttp://www.2lions.ons-forum.nl&quot; rel=&quot;nofollow&quot; target=&quot;_NEW&quot;&gt;\nhttp://www.2lions.ons-forum.nl&lt;/a&gt;\n\n2Lions the site to be for all your Dutch MOVIES and more\n\n******************************************\n\nDON T HIT AND RUN Niet gelijk afhaken als de FILM binnen is blijf seeden. \n\nDon`t quit after you finished the download, but keep seeding\n\nThere are fake torrents from uploaders who use our team name.\nThose are not ours, or members from our team.\nWe 2Lions-Team are not responsible for the fake posts on our name\n\nWij 2Lions-Team zijn niet verantwoordelijk voor die zieke FAKE posten die op onze naam worden gedaan\n\nPlease check our site !!!\n\nto the fakers , get a life !!!","torrent":{"xt":"urn:btih:afe63b63b2171364b6d832266ad82202f304f728","amp;dn":"The+New+Daughter-AC3-5%2C1-DVDRip%5BEng%5D2009+2Lions-Team","amp;tr":["udp%3A%2F%2Ftracker.openbittorrent.com%3A80","udp%3A%2F%2Fopen.demonii.com%3A1337","udp%3A%2F%2Ftracker.coppersurfer.tk%3A6969","udp%3A%2F%2Fexodus.desync.com%3A6969"],"infoHash":"afe63b63b2171364b6d832266ad82202f304f728","infoHashBuffer":{"type":"Buffer","data":[175,230,59,99,178,23,19,100,182,216,50,38,106,216,34,2,243,4,247,40]},"announce":[],"urlList":[]}}